<svg id="Layer_1" data-name="Layer 1" xmlns="http://www.w3.org/2000/svg" viewBox="0 0 108.93 74.88"><defs><style>.cls-1{fill:#fff;}.cls-2{fill:none;stroke:#231f20;stroke-miterlimit:10;stroke-width:0.26px;}</style></defs><title>micpomic_logo</title><path class="cls-1" d="M71.62,58.61H71.49V56.3h0.13a18.82,18.82,0,1,0,0-37.65H71.49v-2.3h0.13A21.13,21.13,0,0,1,71.62,58.61Zm0.13-2v1.78a20.86,20.86,0,0,0,0-41.73V18.4A19.09,19.09,0,0,1,71.75,56.57Z"/><path class="cls-1" d="M71.62,62.71h-52v-2.3h52a23,23,0,0,0,0-46.07h-52V12h52A25.33,25.33,0,1,1,71.62,62.71Zm-51.78-.26H71.62a25.07,25.07,0,1,0,0-50.14H19.84v1.77H71.62a23.3,23.3,0,0,1,0,46.59H19.84v1.77Z"/><path class="cls-1" d="M71.62,70.53H47.56v-2.3H71.62a30.85,30.85,0,0,0,0-61.71H49V4.22H71.62A33.15,33.15,0,0,1,71.62,70.53Zm-23.8-.26h23.8a32.89,32.89,0,0,0,0-65.79H49.25V6.26H71.62a31.12,31.12,0,0,1,0,62.23H47.82v1.78Z"/><path class="cls-1" d="M71.62,74.88H71.49v-2.3h0.13a35,35,0,0,0,0-70H71.49V0.26h0.13A37.31,37.31,0,0,1,71.62,74.88Zm0.13-2v1.78a37,37,0,0,0,0-74.1V2.29A35.27,35.27,0,0,1,71.75,72.84Z"/><path class="cls-1" d="M41.89,18.66h-2.3v-2.3h2.3v2.3Zm-2-.26h1.78V16.62H39.85V18.4Z"/><path class="cls-1" d="M19.53,18.66h-2.3v-2.3h2.3v2.3Zm-2-.26h1.77V16.62H17.49V18.4Z"/><path class="cls-1" d="M23,18.66h-2.3v-2.3H23v2.3Zm-2-.26h1.77V16.62H20.94V18.4Z"/><path class="cls-1" d="M45.55,18.66h-2.3v-2.3h2.3v2.3Zm-2-.26h1.77V16.62H43.52V18.4Z"/><path class="cls-1" d="M49.22,18.66h-2.3v-2.3h2.3v2.3Zm-2-.26H49V16.62H47.18V18.4Z"/><path class="cls-1" d="M57,18.66h-2.3v-2.3H57v2.3Zm-2-.26H56.7V16.62H54.92V18.4Z"/><path class="cls-1" d="M68.71,18.72a1.21,1.21,0,1,1,1.21-1.21A1.21,1.21,0,0,1,68.71,18.72Zm0-2.15a0.94,0.94,0,1,0,.95.95A0.95,0.95,0,0,0,68.71,16.56Z"/><path class="cls-1" d="M99.35,35.5a1.21,1.21,0,1,1,1.21-1.21A1.21,1.21,0,0,1,99.35,35.5Zm0-2.15a0.94,0.94,0,1,0,.95.95A0.95,0.95,0,0,0,99.35,33.35Z"/><path class="cls-1" d="M99.35,42.05a1.21,1.21,0,1,1,1.21-1.21A1.21,1.21,0,0,1,99.35,42.05Zm0-2.15a0.95,0.95,0,1,0,.95.95A0.95,0.95,0,0,0,99.35,39.9Z"/><path class="cls-1" d="M52.15,18.72a1.21,1.21,0,1,1,1.21-1.21A1.21,1.21,0,0,1,52.15,18.72Zm0-2.15a0.94,0.94,0,1,0,.94.95A0.95,0.95,0,0,0,52.15,16.56Z"/><path class="cls-1" d="M57,10.47a1.21,1.21,0,1,1,1.21-1.21A1.21,1.21,0,0,1,57,10.47Zm0-2.15a0.94,0.94,0,1,0,.95.95A0.95,0.95,0,0,0,57,8.32Z"/><path class="cls-1" d="M60.37,10.47a1.21,1.21,0,1,1,1.21-1.21A1.21,1.21,0,0,1,60.37,10.47Zm0-2.15a0.94,0.94,0,1,0,.95.95A0.95,0.95,0,0,0,60.37,8.32Z"/><path class="cls-1" d="M15,18.72a1.21,1.21,0,1,1,1.21-1.21A1.21,1.21,0,0,1,15,18.72Zm0-2.15a0.94,0.94,0,1,0,.95.95A0.95,0.95,0,0,0,15,16.56Z"/><path class="cls-1" d="M66.07,2.52h-2.3V0.22h2.3v2.3Zm-2-.26h1.78V0.49H64V2.26Z"/><path class="cls-1" d="M61.49,2.58A1.21,1.21,0,1,1,62.7,1.38,1.21,1.21,0,0,1,61.49,2.58Zm0-2.15a0.95,0.95,0,1,0,.95.95A0.95,0.95,0,0,0,61.49.43Z"/><path class="cls-1" d="M36.4,58.66a1.21,1.21,0,1,1,1.21-1.21A1.21,1.21,0,0,1,36.4,58.66Zm0-2.15a0.95,0.95,0,1,0,.95.95A0.95,0.95,0,0,0,36.4,56.51Z"/><path class="cls-1" d="M39.52,58.66a1.21,1.21,0,1,1,1.21-1.21A1.21,1.21,0,0,1,39.52,58.66Zm0-2.15a0.95,0.95,0,1,0,.94.95A0.95,0.95,0,0,0,39.52,56.51Z"/><path class="cls-1" d="M62.2,66.7a1.21,1.21,0,1,1,1.21-1.21A1.21,1.21,0,0,1,62.2,66.7Zm0-2.15a0.94,0.94,0,1,0,.94.94A0.95,0.95,0,0,0,62.2,64.55Z"/><path class="cls-1" d="M65.39,66.7a1.21,1.21,0,1,1,1.21-1.21A1.21,1.21,0,0,1,65.39,66.7Zm0-2.15a0.94,0.94,0,1,0,.95.94A0.95,0.95,0,0,0,65.39,64.55Z"/><path class="cls-1" d="M68.71,66.7a1.21,1.21,0,1,1,1.21-1.21A1.21,1.21,0,0,1,68.71,66.7Zm0-2.15a0.94,0.94,0,1,0,.95.94A0.95,0.95,0,0,0,68.71,64.55Z"/><path class="cls-1" d="M66,18.66h-7.4v-2.3H66v2.3Zm-7.13-.26h6.87V16.62H58.89V18.4Z"/><polygon class="cls-1" points="76.14 14.79 76.01 14.56 78.58 13.1 78.71 13.33 76.14 14.79"/><polygon class="cls-1" points="78.43 15.27 78.3 15.04 80.69 13.68 80.82 13.91 78.43 15.27"/><polygon class="cls-1" points="80.39 15.93 80.26 15.7 82.37 14.5 82.5 14.73 80.39 15.93"/><polygon class="cls-1" points="82.13 16.72 81.99 16.49 84.06 15.31 84.19 15.54 82.13 16.72"/><polygon class="cls-1" points="83.67 17.62 83.54 17.39 85.51 16.27 85.64 16.5 83.67 17.62"/><polygon class="cls-1" points="85.02 18.59 84.89 18.36 86.8 17.27 86.93 17.5 85.02 18.59"/><polygon class="cls-1" points="89.75 12.37 89.73 12.11 92.66 11.81 92.68 12.08 89.75 12.37"/><polygon class="cls-1" points="91.63 13.78 91.61 13.52 94.48 13.36 94.5 13.62 91.63 13.78"/><rect class="cls-1" x="93.27" y="14.96" width="2.63" height="0.26" transform="translate(-0.66 4.95) rotate(-2.98)"/><rect class="cls-1" x="94.59" y="16.42" width="2.58" height="0.26" transform="translate(-0.73 5.02) rotate(-2.99)"/><polygon class="cls-1" points="95.79 18.24 95.77 17.98 98.29 17.8 98.31 18.06 95.79 18.24"/><rect class="cls-1" x="96.93" y="19.36" width="2.4" height="0.26" transform="translate(-0.88 5.13) rotate(-2.98)"/><path class="cls-1" d="M13.09,58.61H4V56.3h9.1v2.3Zm-8.83-.26h8.57V56.57H4.25v1.78Z"/><path class="cls-1" d="M2.32,58.66H0V56.31H2.32v2.35ZM0.26,58.4H2.05V56.57H0.26V58.4Z"/><path class="cls-1" d="M24.3,58.61H21.2V56.3h3.1v2.3Zm-2.84-.26H24V56.57H21.46v1.78Z"/><path class="cls-1" d="M28.46,58.61h-3.1V56.3h3.1v2.3Zm-2.84-.26H28.2V56.57H25.63v1.78Z"/><path class="cls-1" d="M32.63,58.61h-3.1V56.3h3.1v2.3Zm-2.84-.26h2.57V56.57H29.8v1.78Z"/><path class="cls-1" d="M55.54,58.61H43.26V56.3H55.54v2.3Zm-12-.26H55.27V56.57H43.52v1.78Z"/><path class="cls-1" d="M69.16,58.61H58.77V56.3H69.16v2.3ZM59,58.35H68.9V56.57H59v1.78Z"/><polygon class="cls-1" points="59.02 58.56 58.81 58.4 60.39 56.35 60.6 56.52 59.02 58.56"/><rect class="cls-1" x="60.15" y="57.33" width="2.58" height="0.26" transform="translate(-21.6 70.9) rotate(-52.28)"/><rect class="cls-1" x="61.89" y="57.33" width="2.58" height="0.26" transform="translate(-20.92 72.27) rotate(-52.28)"/><polygon class="cls-1" points="64.23 58.56 64.02 58.4 65.6 56.35 65.81 56.52 64.23 58.56"/><polygon class="cls-1" points="65.96 58.56 65.76 58.4 67.34 56.35 67.55 56.52 65.96 58.56"/><polygon class="cls-1" points="67.55 58.56 67.34 58.4 68.92 56.35 69.13 56.52 67.55 58.56"/><path class="cls-1" d="M34.57,18.66H24.18v-2.3H34.57v2.3ZM24.44,18.4H34.3V16.62H24.44V18.4Z"/><rect class="cls-1" x="23.82" y="17.38" width="2.58" height="0.26" transform="translate(-4.13 26.57) rotate(-52.11)"/><rect class="cls-1" x="25.56" y="17.38" width="2.58" height="0.26" transform="translate(-3.46 27.94) rotate(-52.11)"/><rect class="cls-1" x="27.29" y="17.38" width="2.58" height="0.26" transform="translate(-2.79 29.31) rotate(-52.11)"/><polygon class="cls-1" points="29.63 18.61 29.43 18.45 31.01 16.41 31.21 16.57 29.63 18.61"/><rect class="cls-1" x="30.77" y="17.38" width="2.58" height="0.26" transform="translate(-1.45 32.05) rotate(-52.11)"/><rect class="cls-1" x="32.35" y="17.38" width="2.58" height="0.26" transform="translate(-0.84 33.3) rotate(-52.11)"/><path class="cls-1" d="M56.26,66.64H45.88v-2.3H56.26v2.3Zm-10.12-.26H56V64.6H46.14v1.78Z"/><polygon class="cls-1" points="46.12 66.59 45.91 66.43 47.5 64.39 47.7 64.56 46.12 66.59"/><polygon class="cls-1" points="47.86 66.59 47.65 66.43 49.23 64.39 49.44 64.56 47.86 66.59"/><polygon class="cls-1" points="49.59 66.59 49.38 66.43 50.97 64.39 51.18 64.56 49.59 66.59"/><polygon class="cls-1" points="51.33 66.59 51.12 66.43 52.71 64.39 52.92 64.56 51.33 66.59"/><polygon class="cls-1" points="53.07 66.59 52.86 66.43 54.44 64.39 54.65 64.55 53.07 66.59"/><polygon class="cls-1" points="54.65 66.59 54.44 66.43 56.03 64.39 56.23 64.56 54.65 66.59"/><path class="cls-1" d="M11.67,18.72H0V16.36H11.67v2.36Zm-11.4-.26H11.4V16.62H0.26v1.83Z"/><path class="cls-1" d="M100.42,32.08H98.07l0-.1A27.06,27.06,0,0,0,71.62,10.4H71.49V8.1h0.13A29.06,29.06,0,0,1,83,10.39h0a29.24,29.24,0,0,1,17.42,21.54Zm-2.13-.26h1.81A29,29,0,0,0,71.75,8.37v1.78A27.33,27.33,0,0,1,98.29,31.82Z"/><path class="cls-1" d="M71.62,66.66H71.49v-2.3h0.13A27.09,27.09,0,0,0,98,42.95l0-.1h2.34l0,0.16A29.32,29.32,0,0,1,71.62,66.66Zm0.13-2v1.78a29.06,29.06,0,0,0,28.31-23.29H98.25A27.36,27.36,0,0,1,71.75,64.62Z"/><path class="cls-1" d="M18,58.86H16.42l-0.79-1.37,0.79-1.38H18l0.79,1.38Zm-1.44-.26h1.29l0.64-1.11-0.64-1.12H16.57l-0.64,1.12Z"/><path class="cls-1" d="M37.8,18.91H36.21l-0.79-1.37,0.79-1.37H37.8l0.8,1.37Zm-1.44-.26h1.28l0.64-1.11-0.64-1.11H36.36l-0.64,1.11Z"/><path class="cls-1" d="M40.51,66.64h-2.3v-2.3h2.3v2.3Zm-2-.26h1.78V64.6H38.47v1.78Z"/><path class="cls-1" d="M44.18,66.64h-2.3v-2.3h2.3v2.3Zm-2-.26h1.78V64.6H42.14v1.78Z"/><path class="cls-1" d="M60.05,66.64h-2.3v-2.3h2.3v2.3Zm-2-.26h1.78V64.6H58v1.78Z"/><path class="cls-1" d="M70.38,74.88H64.9v-2.3h5.48v2.3Zm-5.22-.26h5V72.84h-5v1.78Z"/><polygon class="cls-1" points="65.2 74.83 64.99 74.67 66.58 72.63 66.79 72.79 65.2 74.83"/><polygon class="cls-1" points="66.94 74.83 66.73 74.67 68.31 72.63 68.52 72.79 66.94 74.83"/><polygon class="cls-1" points="68.61 74.83 68.4 74.67 69.99 72.63 70.19 72.79 68.61 74.83"/><path class="cls-2" d="M72.14,72.71"/><path class="cls-2" d="M70.25,74.75"/><path class="cls-1" d="M69.21,10.39H63.73V8.09h5.48v2.3ZM64,10.13h5V8.35H64v1.77Z"/><rect class="cls-1" x="63.43" y="9.11" width="2.58" height="0.26" transform="translate(17.68 54.64) rotate(-52.11)"/><rect class="cls-1" x="65.17" y="9.11" width="2.58" height="0.26" transform="translate(18.35 56.01) rotate(-52.11)"/><rect class="cls-1" x="66.84" y="9.11" width="2.58" height="0.26" transform="translate(18.99 57.33) rotate(-52.11)"/><path class="cls-2" d="M69.08,10.26"/><path class="cls-1" d="M63.79,74.88h-2.3v-2.3h2.3v2.3Zm-2-.26h1.78V72.84H61.75v1.78Z"/><path class="cls-1" d="M35.7,66.9H34.11l-0.79-1.37,0.79-1.38H35.7l0.79,1.38Zm-1.44-.26h1.29l0.64-1.11-0.64-1.11H34.27l-0.64,1.11Z"/><path class="cls-1" d="M41.7,10.39H33.28V8.09H41.7v2.3Zm-8.15-.26h7.89V8.35H33.55v1.77Z"/><path class="cls-1" d="M50.8,10.39H48.5V8.09h2.3v2.3Zm-2-.26h1.77V8.35H48.76v1.77Z"/><path class="cls-1" d="M54.47,10.39h-2.3V8.09h2.3v2.3Zm-2-.26H54.2V8.35H52.43v1.77Z"/><path class="cls-1" d="M46,10.64H44.4L43.61,9.27,44.4,7.89H46l0.79,1.38Zm-1.44-.26h1.29l0.64-1.11L45.84,8.15H44.55L43.91,9.27Z"/><path class="cls-1" d="M100.27,38.84H98.68l-0.79-1.38,0.79-1.38h1.59l0.79,1.38Zm-1.44-.26h1.29l0.64-1.11-0.64-1.11H98.83l-0.64,1.11Z"/><path class="cls-1" d="M69.34,2.75H67.75L67,1.38,67.75,0h1.59l0.79,1.38Zm-1.44-.26h1.29l0.64-1.11L69.19,0.26H67.91L67.26,1.38Z"/><polygon class="cls-1" points="85.02 58.6 84.72 56.41 84.98 56.37 85.28 58.56 85.02 58.6"/><rect class="cls-1" x="83.3" y="57.37" width="0.26" height="2.22" transform="translate(-7.08 11.71) rotate(-7.7)"/><polygon class="cls-1" points="86.42 57.7 86.14 55.4 86.39 55.37 86.67 57.67 86.42 57.7"/><rect class="cls-1" x="87.61" y="54.15" width="0.26" height="2.46" transform="matrix(0.99, -0.13, 0.13, 0.99, -6.62, 12.23)"/><polygon class="cls-1" points="89.1 55.3 88.77 52.82 89.02 52.78 89.36 55.27 89.1 55.3"/><polygon class="cls-1" points="90.41 53.92 90.08 51.2 90.34 51.17 90.67 53.89 90.41 53.92"/><polygon class="cls-1" points="100.6 52.96 99.25 51.2 99.46 51.05 100.81 52.8 100.6 52.96"/><polygon class="cls-1" points="99.73 54.6 98.38 52.85 98.58 52.69 99.94 54.44 99.73 54.6"/><polygon class="cls-1" points="101.36 51.48 99.98 49.63 100.19 49.48 101.57 51.33 101.36 51.48"/><rect class="cls-1" x="101.28" y="47.75" width="0.26" height="2.29" transform="translate(-8.6 72.83) rotate(-38.01)"/><polygon class="cls-1" points="102.76 48.37 101.23 46.38 101.44 46.22 102.97 48.21 102.76 48.37"/><rect class="cls-1" x="102.45" y="44.14" width="0.26" height="2.66" transform="translate(-7.4 67.69) rotate(-35.33)"/><path class="cls-1" d="M14,34.14H12.18V27.51a6,6,0,0,0-.09-1.1,2,2,0,0,0-.27-0.74,1.06,1.06,0,0,0-.49-0.41,1.93,1.93,0,0,0-.73-0.12A3.52,3.52,0,0,0,8,26.78v7.37H6.17V27.51a5.63,5.63,0,0,0-.09-1.1,2,2,0,0,0-.29-0.74,1.09,1.09,0,0,0-.49-0.41,1.93,1.93,0,0,0-.73-0.12,3.51,3.51,0,0,0-2.61,1.64v7.37H0.13V23.87H1.95v1.3a3.79,3.79,0,0,1,2.89-1.56,2.71,2.71,0,0,1,2.87,1.87,9.82,9.82,0,0,1,1-1,4.51,4.51,0,0,1,.79-0.57,2.32,2.32,0,0,1,.7-0.26,4,4,0,0,1,.69-0.06q3.17,0,3.17,3.81v6.72Z"/><rect class="cls-1" x="16.68" y="23.87" width="1.82" height="10.27"/><path class="cls-1" d="M25.36,34.39a5.17,5.17,0,0,1-2-.36,4.26,4.26,0,0,1-1.53-1,4.68,4.68,0,0,1-1-1.69,7.7,7.7,0,0,1,0-4.57,4.71,4.71,0,0,1,1-1.69A4.23,4.23,0,0,1,23.38,24a5.18,5.18,0,0,1,2-.37,5.28,5.28,0,0,1,1.54.22,3.8,3.8,0,0,1,1.25.64,3.47,3.47,0,0,1,.89,1,4,4,0,0,1,.46,1.43H27.62a2,2,0,0,0-.2-0.82,1.78,1.78,0,0,0-.48-0.59,2.15,2.15,0,0,0-.7-0.36,2.94,2.94,0,0,0-.87-0.12,2.82,2.82,0,0,0-1.19.25,2.48,2.48,0,0,0-.93.74,3.62,3.62,0,0,0-.6,1.24,7,7,0,0,0,0,3.44,3.62,3.62,0,0,0,.6,1.24,2.48,2.48,0,0,0,.93.74,2.82,2.82,0,0,0,1.19.25,3,3,0,0,0,.83-0.12,2.19,2.19,0,0,0,.71-0.35,1.82,1.82,0,0,0,.5-0.58,1.85,1.85,0,0,0,.22-0.82H29.5A3.87,3.87,0,0,1,29,32.52a3.49,3.49,0,0,1-.9,1,3.78,3.78,0,0,1-1.25.63A5.37,5.37,0,0,1,25.36,34.39Z"/><path class="cls-1" d="M14.16,50.56H12.31V43.92a6,6,0,0,0-.09-1.1A2,2,0,0,0,12,42.08a1.06,1.06,0,0,0-.49-0.41,1.93,1.93,0,0,0-.73-0.12A3.52,3.52,0,0,0,8.1,43.19v7.37H6.3V43.92a5.63,5.63,0,0,0-.09-1.1,2,2,0,0,0-.29-0.74,1.09,1.09,0,0,0-.49-0.41,1.93,1.93,0,0,0-.73-0.12,3.51,3.51,0,0,0-2.61,1.64v7.37H0.26V40.28H2.08v1.3A3.79,3.79,0,0,1,5,40,2.71,2.71,0,0,1,7.85,41.9a9.82,9.82,0,0,1,1-1,4.51,4.51,0,0,1,.79-0.57,2.32,2.32,0,0,1,.7-0.26A4,4,0,0,1,11,40q3.17,0,3.17,3.81v6.72Z"/><rect class="cls-1" x="16.81" y="36.22" width="1.82" height="1.98"/><rect class="cls-1" x="16.81" y="40.28" width="1.82" height="10.27"/><path class="cls-1" d="M25.49,50.8a5.17,5.17,0,0,1-2-.36,4.26,4.26,0,0,1-1.53-1,4.68,4.68,0,0,1-1-1.69,7.7,7.7,0,0,1,0-4.57,4.71,4.71,0,0,1,1-1.69,4.23,4.23,0,0,1,1.53-1.05,5.18,5.18,0,0,1,2-.37,5.28,5.28,0,0,1,1.54.22,3.8,3.8,0,0,1,1.25.64,3.47,3.47,0,0,1,.89,1,4,4,0,0,1,.46,1.43H27.75a2,2,0,0,0-.2-0.82A1.78,1.78,0,0,0,27.06,42a2.15,2.15,0,0,0-.7-0.36,2.94,2.94,0,0,0-.87-0.12,2.82,2.82,0,0,0-1.19.25,2.48,2.48,0,0,0-.93.74,3.62,3.62,0,0,0-.6,1.24,7,7,0,0,0,0,3.44,3.62,3.62,0,0,0,.6,1.24,2.48,2.48,0,0,0,.93.74,2.82,2.82,0,0,0,1.19.25,3,3,0,0,0,.83-0.12A2.19,2.19,0,0,0,27,48.89a1.82,1.82,0,0,0,.5-0.58,1.85,1.85,0,0,0,.22-0.82h1.88a3.87,3.87,0,0,1-.46,1.44,3.49,3.49,0,0,1-.9,1,3.78,3.78,0,0,1-1.25.63A5.37,5.37,0,0,1,25.49,50.8Z"/><path class="cls-1" d="M52.6,25.4a9.39,9.39,0,0,0-3.26-1.22,20.77,20.77,0,0,0-3.78-.34h-10V50.21h4.15V40h6.07c3.22,0,5.71-.7,7.4-2.08a7.56,7.56,0,0,0,2.58-6.19,7.81,7.81,0,0,0-.86-3.86A6.67,6.67,0,0,0,52.6,25.4Zm-1.08,6.36a5.55,5.55,0,0,1-.31,1.93A3.07,3.07,0,0,1,50.27,35a4.59,4.59,0,0,1-1.73.84,10.41,10.41,0,0,1-2.68.3H39.72V27.64h6a14.91,14.91,0,0,1,2.3.17,5.3,5.3,0,0,1,1.83.61,3.18,3.18,0,0,1,1.2,1.23A4.34,4.34,0,0,1,51.52,31.76Z"/><path class="cls-1" d="M82.62,31.46A12.75,12.75,0,0,0,80,27.15a11.69,11.69,0,0,0-4-2.78,12.91,12.91,0,0,0-5.06-1,13,13,0,0,0-5.05,1,11.6,11.6,0,0,0-4,2.77,12.83,12.83,0,0,0-2.63,4.31A15.72,15.72,0,0,0,58.3,37a16,16,0,0,0,.93,5.54,12.76,12.76,0,0,0,2.61,4.32,11.75,11.75,0,0,0,4,2.8,13.56,13.56,0,0,0,10.19,0,11.67,11.67,0,0,0,4-2.82,12.92,12.92,0,0,0,2.6-4.32A16.91,16.91,0,0,0,82.62,31.46ZM79.31,37a13.22,13.22,0,0,1-.63,4.25,9.15,9.15,0,0,1-1.74,3.12,7.51,7.51,0,0,1-2.65,1.94,8.74,8.74,0,0,1-6.73,0,7.52,7.52,0,0,1-2.64-1.94,9.15,9.15,0,0,1-1.74-3.12A13.25,13.25,0,0,1,62.56,37a12.92,12.92,0,0,1,.64-4.22A9.19,9.19,0,0,1,65,29.67a7.5,7.5,0,0,1,2.65-1.93A8.45,8.45,0,0,1,71,27.07a8.26,8.26,0,0,1,3.3.66,7.39,7.39,0,0,1,2.62,1.91,9.18,9.18,0,0,1,1.75,3.11A13.12,13.12,0,0,1,79.31,37Z"/></svg>